<svg width="218" height="52" viewBox="0 0 218 52" fill="none" xmlns="http://www.w3.org/2000/svg">
<path d="M72.9072 41.1457V0H81.5695V20.2119L89.8708 10.8278H101.42L89.5099 23.4603L103.947 41.1457H93.1191L83.735 29.2351L81.5695 31.7616V41.1457H72.9072Z" fill="black"/>
<path fill-rule="evenodd" clip-rule="evenodd" d="M0 10.8274V51.973H9.02318V38.6187C10.3466 39.7015 13.4265 41.5062 16.6026 41.5062C19.7788 41.5062 21.7672 41.0815 24.1821 39.7015C26.7086 38.2578 31.5243 34.3027 31.7616 26.7081C32.0489 17.5138 26.1969 13.614 25.2781 13.0017L25.2649 12.9929C21.8 10.683 17.3245 10.3461 15.5199 10.4664C14.0762 10.5867 10.7556 10.9717 9.02318 12.9929V10.8274H0ZM15.8807 18.4072C18.7681 18.4072 22.7383 20.2119 22.7383 25.9867C22.7383 31.7615 18.1665 33.4459 15.8807 33.5662C13.4745 33.5662 8.66211 32.0503 8.66211 25.9867C8.66211 19.9231 13.3542 18.4072 15.8807 18.4072Z" fill="black"/>
<path fill-rule="evenodd" clip-rule="evenodd" d="M57.7486 10.8297H67.1327V41.1476H57.7486V38.2601C57.0267 39.4632 54.428 41.8694 49.8082 41.8694C44.0333 41.8694 35.3711 37.1774 35.3711 26.7105C35.3711 16.2436 42.5896 10.4688 49.0863 10.4688C54.8612 10.4688 56.6658 12.2734 57.7486 13.7171V10.8297ZM51.2517 33.9286C55.2384 33.9286 58.4703 30.3736 58.4703 25.9882C58.4703 21.6029 55.2384 18.0479 51.2517 18.0479C47.2651 18.0479 44.0332 21.6029 44.0332 25.9882C44.0332 30.3736 47.2651 33.9286 51.2517 33.9286Z" fill="black"/>
<path d="M119.828 3.60938H110.443V10.8279H106.112V18.7683H110.443V33.5663C110.443 37.6087 112.85 39.8224 114.053 40.4239C114.654 40.9052 116.724 41.8677 120.188 41.8677C123.653 41.8677 125.723 40.9052 126.324 40.4239V33.2054H121.271C120.116 33.2054 119.828 31.7617 119.828 31.0398V18.7683H126.324V10.8279H119.828V3.60938Z" fill="#10D38D"/>
<path d="M140.039 10.8281H130.655V32.1228C130.655 35.7321 135.347 41.5069 141.844 41.5069C147.258 41.5069 150.145 38.2586 151.228 36.093V41.146H160.251V10.8281H151.228C151.228 10.8281 150.867 26.7089 150.867 28.1526C150.867 29.5963 148.341 33.2056 144.731 33.2056C141.483 33.2056 140.039 30.6791 140.039 29.2354V10.8281Z" fill="#10D38D"/>
<path d="M166.026 41.1476V10.8297H175.41V15.1608C176.373 13.5968 179.517 10.4688 184.434 10.4688C189.126 10.4688 193.457 13.7171 194.901 16.6045C196.344 14.4389 199.593 10.4688 206.089 10.4688C213.669 10.4688 218 17.6873 218 21.6575V41.1476H208.616V24.5449C208.616 22.7403 207.894 18.4091 203.202 18.4091C198.51 18.4091 196.344 21.6575 196.344 24.5449V41.1476H187.682V24.5449C187.802 22.62 186.816 18.7701 181.907 18.7701C176.999 18.7701 175.531 22.62 175.41 24.5449V41.1476H166.026Z" fill="#10D38D"/>
</svg>
