<svg width="127" height="193" viewBox="0 0 127 193" fill="none" xmlns="http://www.w3.org/2000/svg">
<path d="M22 3H124V166H22V3Z" fill="white" stroke="black" stroke-width="5"/>
<rect x="88" y="14" width="29" height="8" rx="4" fill="black"/>
<rect x="79" y="26" width="38" height="8" rx="4" fill="black"/>
<rect x="78" y="146" width="38" height="8" rx="4" fill="black"/>
<rect x="35" y="14" width="29" height="8" rx="4" fill="black"/>
<rect x="35" y="26" width="38" height="8" rx="4" fill="black"/>
<rect x="30" y="74" width="38" height="8" rx="4" fill="black"/>
<rect x="30" y="106" width="32" height="8" rx="4" fill="black"/>
<rect x="32" y="135" width="50" height="8" rx="4" fill="black"/>
<rect x="30" y="96" width="52" height="8" rx="4" fill="black"/>
<rect x="30" y="85" width="73" height="8" rx="4" fill="black"/>
<path d="M3 28.9883H105V190H3V28.9883Z" fill="white" stroke="#10D38D" stroke-width="5"/>
<circle cx="23.5" cy="56.5" r="13.5" fill="black"/>
<rect x="69" y="42" width="29" height="8" rx="4" fill="black"/>
<rect x="60" y="54" width="38" height="8" rx="4" fill="black"/>
<rect x="11" y="102" width="38" height="8" rx="4" fill="black"/>
<rect x="11" y="134" width="32" height="8" rx="4" fill="black"/>
<rect x="13" y="163" width="50" height="8" rx="4" fill="black"/>
<rect x="11" y="124" width="52" height="8" rx="4" fill="black"/>
<rect x="11" y="113" width="73" height="8" rx="4" fill="black"/>
<path d="M78.1 159.25C78.1 158.524 78.7033 157.938 79.45 157.938C80.1967 157.938 80.8 158.524 80.8 159.25V159.57C80.8 160.706 80.6987 161.838 80.5005 162.954L76.9398 163.991C75.227 164.492 74.0542 166.026 74.0542 167.765V170.714C74.0542 172.354 75.4253 173.688 77.1128 173.688C78.2097 173.688 79.2222 173.117 79.7664 172.19L80.3528 171.194C81.4834 169.266 82.3145 167.187 82.8166 165.021L86.7991 163.86L86.2717 165.398C86.1325 165.8 86.2042 166.239 86.4573 166.579C86.7105 166.92 87.1197 167.125 87.5542 167.125H92.95C93.6967 167.125 94.3 166.538 94.3 165.812C94.3 165.087 93.6967 164.5 92.95 164.5H89.4231L90.1825 162.289C90.3428 161.826 90.2205 161.313 89.8703 160.96C89.5202 160.608 88.997 160.476 88.5119 160.616L83.3481 162.125C83.4494 161.276 83.5 160.427 83.5 159.57V159.25C83.5 157.076 81.6859 155.312 79.45 155.312C77.2141 155.312 75.4 157.076 75.4 159.25V160.562C75.4 161.288 76.0033 161.875 76.75 161.875C77.4967 161.875 78.1 161.288 78.1 160.562V159.25ZM77.7119 166.51L79.7791 165.907C79.3403 167.293 78.7455 168.63 78.003 169.894L77.4166 170.89C77.3533 170.997 77.2352 171.067 77.1044 171.067C76.9061 171.067 76.7458 170.911 76.7458 170.718V167.765C76.7458 167.187 77.1381 166.674 77.7077 166.506L77.7119 166.51ZM71.0125 169.094C70.4514 169.094 70 169.533 70 170.078C70 170.624 70.4514 171.062 71.0125 171.062H72.7127C72.7042 170.948 72.7 170.833 72.7 170.714V169.094H71.0125ZM95.9875 171.062C96.5486 171.062 97 170.624 97 170.078C97 169.533 96.5486 169.094 95.9875 169.094H82.9052C82.6225 169.762 82.3061 170.419 81.9644 171.062H95.9875Z" fill="black"/>
</svg>
