<svg width="64" height="64" viewBox="0 0 64 64" fill="none" xmlns="http://www.w3.org/2000/svg">
<circle cx="38" cy="38" r="26" fill="#10D38D"/>
<path d="M32 2C15.432 2 2 15.432 2 32C2 48.568 15.432 62 32 62C48.568 62 62 48.568 62 32C62 15.432 48.568 2 32 2ZM39.105 45.092C37.174 47.029 34.771 48 31.897 48C29.173 48 26.914 47.184 25.121 45.553C23.328 43.92 22.288 41.785 22 39.15L27.585 38.443C27.764 39.925 28.242 41.06 29.023 41.843C29.804 42.626 30.748 43.019 31.857 43.019C33.047 43.019 34.05 42.548 34.866 41.609C35.68 40.668 36.089 39.4 36.089 37.802C36.089 36.292 35.698 35.095 34.917 34.212C34.136 33.327 33.186 32.888 32.063 32.888C31.323 32.888 30.44 33.036 29.413 33.335L30.05 28.44C31.611 28.483 32.802 28.129 33.623 27.381C34.444 26.633 34.855 25.639 34.855 24.399C34.855 23.344 34.554 22.503 33.952 21.878C33.349 21.251 32.548 20.937 31.549 20.937C30.564 20.937 29.722 21.292 29.024 22.005C28.326 22.718 27.902 23.757 27.751 25.126L22.434 24.187C22.803 22.291 23.362 20.777 24.108 19.644C24.853 18.511 25.893 17.621 27.229 16.972C28.561 16.324 30.057 16 31.713 16C34.546 16 36.819 16.939 38.529 18.822C39.939 20.361 40.644 22.097 40.644 24.037C40.644 26.787 39.2 28.982 36.312 30.621C38.037 31.006 39.416 31.867 40.45 33.207C41.483 34.547 42 36.164 42 38.061C42 40.811 41.035 43.154 39.105 45.092Z" fill="#111C18"/>
</svg>
