<svg width="64" height="64" viewBox="0 0 64 64" fill="none" xmlns="http://www.w3.org/2000/svg">
<circle cx="38" cy="38" r="26" fill="#10D38D"/>
<path d="M32 2C15.432 2 2 15.432 2 32C2 48.568 15.432 62 32 62C48.568 62 62 48.568 62 32C62 15.432 48.568 2 32 2ZM42 42.326V48H22C22.2159 45.8534 22.8799 43.776 23.949 41.902C25.032 39.98 27.17 37.435 30.365 34.259C32.936 31.695 34.513 29.956 35.096 29.042C35.88 27.782 36.273 26.534 36.273 25.304C36.273 23.941 35.931 22.894 35.248 22.161C34.565 21.428 33.621 21.063 32.416 21.063C31.225 21.063 30.276 21.448 29.573 22.215C28.869 22.983 28.463 24.26 28.355 26.041L22.669 25.432C23.007 22.071 24.07 19.659 25.857 18.194C27.645 16.732 29.878 16 32.559 16C35.495 16 37.805 16.848 39.483 18.543C41.161 20.238 42 22.348 42 24.869C42 26.303 41.76 27.67 41.279 28.967C40.799 30.266 40.037 31.623 38.995 33.043C38.304 33.984 37.058 35.34 35.258 37.107C33.459 38.877 32.318 40.05 31.838 40.63C31.394 41.1553 31.0028 41.723 30.67 42.325H42V42.326Z" fill="#111C18"/>
</svg>
