<svg width="257" height="210" viewBox="0 0 257 210" fill="none" xmlns="http://www.w3.org/2000/svg">
<path d="M19 35H121V198H19V35Z" fill="white" stroke="black" stroke-width="5"/>
<path d="M94.1 165.25C94.1 164.524 94.7033 163.938 95.45 163.938C96.1967 163.938 96.8 164.524 96.8 165.25V165.57C96.8 166.706 96.6987 167.838 96.5005 168.954L92.9398 169.991C91.227 170.492 90.0542 172.026 90.0542 173.765V176.714C90.0542 178.354 91.4253 179.688 93.1128 179.688C94.2097 179.688 95.2222 179.117 95.7664 178.19L96.3528 177.194C97.4834 175.266 98.3145 173.187 98.8166 171.021L102.799 169.86L102.272 171.398C102.133 171.8 102.204 172.239 102.457 172.579C102.71 172.92 103.12 173.125 103.554 173.125H108.95C109.697 173.125 110.3 172.538 110.3 171.812C110.3 171.087 109.697 170.5 108.95 170.5H105.423L106.183 168.289C106.343 167.826 106.22 167.313 105.87 166.96C105.52 166.608 104.997 166.476 104.512 166.616L99.3481 168.125C99.4494 167.276 99.5 166.427 99.5 165.57V165.25C99.5 163.076 97.6859 161.312 95.45 161.312C93.2141 161.312 91.4 163.076 91.4 165.25V166.562C91.4 167.288 92.0033 167.875 92.75 167.875C93.4967 167.875 94.1 167.288 94.1 166.562V165.25ZM93.7119 172.51L95.7791 171.907C95.3403 173.293 94.7455 174.63 94.003 175.894L93.4166 176.89C93.3533 176.997 93.2352 177.067 93.1044 177.067C92.9061 177.067 92.7458 176.911 92.7458 176.718V173.765C92.7458 173.187 93.1381 172.674 93.7077 172.506L93.7119 172.51ZM87.0125 175.094C86.4514 175.094 86 175.533 86 176.078C86 176.624 86.4514 177.062 87.0125 177.062H88.7127C88.7042 176.948 88.7 176.833 88.7 176.714V175.094H87.0125ZM111.988 177.062C112.549 177.062 113 176.624 113 176.078C113 175.533 112.549 175.094 111.988 175.094H98.9052C98.6225 175.762 98.3061 176.419 97.9644 177.062H111.988Z" fill="black"/>
<circle cx="39.5" cy="60.5" r="13.5" fill="black"/>
<rect x="85" y="46" width="29" height="8" rx="4" fill="black"/>
<rect x="76" y="58" width="38" height="8" rx="4" fill="black"/>
<rect x="27" y="106" width="38" height="8" rx="4" fill="black"/>
<rect x="27" y="138" width="32" height="8" rx="4" fill="black"/>
<rect x="29" y="167" width="50" height="8" rx="4" fill="black"/>
<rect x="27" y="128" width="52" height="8" rx="4" fill="black"/>
<rect x="27" y="117" width="73" height="8" rx="4" fill="black"/>
<path d="M138.463 3.43945L253.876 24.3402L220.883 206.525L105.47 185.624L138.463 3.43945Z" fill="white" stroke="#10D38D" stroke-width="5"/>
<g clip-path="url(#clip0_233_181)">
<path d="M194.127 165.429C194.283 164.544 195.134 163.96 196.033 164.123C196.931 164.285 197.532 165.131 197.376 166.015L197.308 166.405C197.064 167.79 196.7 169.148 196.222 170.465L191.715 170.957C189.547 171.195 187.807 172.81 187.434 174.93L186.802 178.524C186.45 180.524 187.814 182.446 189.845 182.813C191.165 183.051 192.505 182.576 193.359 181.564L194.278 180.477C196.052 178.372 197.497 176.018 198.566 173.487L203.607 172.937L202.642 174.698C202.389 175.157 202.381 175.708 202.612 176.178C202.844 176.648 203.293 176.986 203.815 177.081L210.308 178.252C211.207 178.414 212.058 177.831 212.214 176.946C212.369 176.061 211.769 175.215 210.871 175.053L206.627 174.287L208.014 171.757C208.307 171.227 208.269 170.576 207.924 170.07C207.578 169.564 206.977 169.29 206.363 169.355L199.826 170.073C200.13 169.06 200.373 168.037 200.556 166.992L200.625 166.602C201.091 163.952 199.286 161.408 196.596 160.923C193.905 160.437 191.344 162.193 190.878 164.843L190.597 166.443C190.441 167.328 191.042 168.174 191.94 168.336C192.839 168.498 193.69 167.914 193.846 167.029L194.127 165.429ZM192.104 174.194L194.721 173.908C193.896 175.502 192.893 177.003 191.729 178.382L190.81 179.469C190.711 179.585 190.554 179.645 190.396 179.616C190.158 179.573 189.998 179.349 190.04 179.114L190.673 175.514C190.797 174.809 191.379 174.269 192.1 174.188L192.104 174.194ZM183.489 175.889C182.814 175.767 182.177 176.204 182.06 176.869C181.943 177.534 182.392 178.167 183.067 178.289L185.113 178.658C185.127 178.516 185.147 178.375 185.172 178.23L185.52 176.255L183.489 175.889ZM213.119 183.711C213.794 183.833 214.431 183.396 214.548 182.731C214.665 182.066 214.216 181.433 213.541 181.312L197.799 178.471C197.316 179.225 196.795 179.956 196.245 180.667L213.119 183.711Z" fill="black"/>
</g>
<circle cx="156.022" cy="38.77" r="15.5237" transform="rotate(10.2648 156.022 38.77)" fill="black"/>
<rect x="210.476" y="31.6865" width="33.3471" height="9.19921" rx="4.5996" transform="rotate(10.2648 210.476 31.6865)" fill="black"/>
<rect x="197.833" y="43.4199" width="43.6962" height="9.19921" rx="4.5996" transform="rotate(10.2648 197.833 43.4199)" fill="black"/>
<rect x="132.554" y="87.6914" width="43.6962" height="9.19921" rx="4.5996" transform="rotate(10.2648 132.554 87.6914)" fill="black"/>
<rect x="125.997" y="123.899" width="36.7968" height="9.19921" rx="4.5996" transform="rotate(10.2648 125.997 123.899)" fill="black"/>
<rect x="122.317" y="157.122" width="57.495" height="9.19921" rx="4.5996" transform="rotate(10.2648 122.317 157.122)" fill="black"/>
<rect x="128.047" y="112.585" width="59.7948" height="9.19921" rx="4.5996" transform="rotate(10.2648 128.047 112.585)" fill="black"/>
<rect x="130.3" y="100.138" width="83.9427" height="9.19921" rx="4.5996" transform="rotate(10.2648 130.3 100.138)" fill="black"/>
<defs>
<clipPath id="clip0_233_181">
<rect width="33" height="26" fill="white" transform="translate(183 160)"/>
</clipPath>
</defs>
</svg>
